<svg xmlns="http://www.w3.org/2000/svg" style="display: none;">
  
    <symbol id="icon-instagram" viewBox="0 0 512 512">
      <path d="m389 256c0-9-1-17-3-26c0 0 90 0 90 0c0 0 0 177 0 177c0 19-6 35-20 49c-13 13-29 20-48 20c0 0-304 0-304 0c-19 0-35-7-48-20c-14-14-20-30-20-49c0 0 0-177 0-177c0 0 89 0 89 0c-1 11-2 20-2 26c0 36 13 67 39 94c26 26 57 39 94 39c36 0 67-13 94-39c26-27 39-58 39-94m19-220c19 0 35 6 48 20c14 13 20 29 20 48c0 0 0 75 0 75c0 0-111 0-111 0c-27-37-63-56-109-56c-47 0-83 19-109 56c0 0-111 0-111 0c0 0 0-75 0-75c0-19 6-35 20-48c13-14 29-20 48-20c0 0 304 0 304 0m32 85c0 0 0-37 0-37c0-8-4-12-12-12c0 0-37 0-37 0c-8 0-12 4-12 12c0 0 0 37 0 37c0 3 1 5 3 8c3 3 6 4 9 4c0 0 37 0 37 0c8 0 12-4 12-12m-102 135c0 23-8 42-24 58c-16 16-35 24-58 24c-23 0-42-8-58-24c-16-16-24-35-24-58c0-23 8-43 24-58c16-16 35-24 58-24c23 0 42 8 58 24c16 15 24 35 24 58"/>
    </symbol>
  
    <symbol id="icon-whatsapp" viewBox="0 0 512 512">
      <path d="m272 0c-133 0-240 107-240 240 0 54 18 106 51 147l-33 103c-2 6 0 12 4 17 2 3 7 5 10 5 2 0 5 0 6-2l111-49c29 13 59 19 91 19 133 0 240-107 240-240 0-133-107-240-240-240z m139 328c-6 19-30 35-51 38-5 2-10 2-16 2-13 0-32-3-66-18-38-16-76-49-107-92l0-2c-9-14-27-42-27-70 0-36 18-53 24-61 8-8 19-13 32-13 3 0 5 0 8 0 11 0 19 3 27 19l7 13c4 13 11 27 12 29 5 9 5 17 0 25-1 5-4 8-8 12-1 3-3 4-4 4-2 2-2 2-4 4 5 8 15 22 28 33 19 18 33 23 41 26 3-3 7-10 11-15l2-3c8-11 21-14 34-9 6 3 41 19 41 19l3 1c5 4 12 5 15 12 6 14 1 35-2 46z"/>
    </symbol>
  
    <symbol id="icon-email" viewBox="0 0 512 512">
      <path d="m461 51l-410 0c-28 0-51 23-51 51l0 308c0 28 23 51 51 51l410 0c28 0 51-23 51-51l0-308c0-28-23-51-51-51z m-10 109l-181 113c-9 5-19 5-28 0l-181-113c-6-4-10-11-10-18 0-18 19-28 33-19l172 107 172-107c14-9 33 1 33 19 0 7-4 14-10 18z"/>
    </symbol>
  
    <symbol id="icon-facebook" viewBox="0 0 512 512">
      <path d="m368 0l-224 0c-80 0-144 64-144 144l0 224c0 80 64 144 144 144l112 0 0-192-64 0c-10 0-16-6-16-16l0-48c0-10 6-16 16-16l64 0 0-48c0-53 27-96 80-96l64 0c10 0 16 6 16 16l0 48c0 10-6 16-16 16l-61 0c-1 0-3 2-3 3l0 61 80 0c5 0 10 3 13 6 3 4 3 10 1 15l-32 48c-1 8-8 11-14 11l-48 0 0 192 32 0c80 0 144-64 144-144l0-224c0-80-64-144-144-144z"/>
    </symbol>
  
    <symbol id="icon-twitter" viewBox="0 0 512 512">
      <path d="m168 490c-56 0-112-16-160-48-6-5-8-12-6-20 3-6 9-11 17-11 37 5 72-1 103-17-31-13-56-39-66-72-2-5 0-12 3-16 0 0 2-2 2-2-24-22-40-54-40-88 0-6 3-11 8-14 1-2 5-2 6-2-9-18-14-37-14-56 0-21 5-42 16-59 1-5 6-8 13-8 4 0 11 1 14 6 37 47 88 80 146 93 0-70 57-128 128-128 35 0 68 14 92 40 16-5 29-13 44-21 6-3 14-3 19 2 3 5 5 11 1 17l-24 48 31 10c6 3 11 8 11 14 0 7-2 13-8 16l-42 24c-4 144-115 292-294 292z"/>
    </symbol>
  
    <symbol id="icon-resume" viewBox="0 0 512 512">
      <path d="m377 132l-76 0c-4 0-7 3-7 7 0 4 3 8 7 8l76 0c4 0 7-4 7-8 0-4-3-7-7-7z m0 51l-76 0c-2 0-5 2-6 4-2 2-2 5 0 8 1 2 4 3 6 3l76 0c4 0 7-3 7-7 0-4-3-8-7-8z m-139 44c0-9-1-19-2-28-1-4-3-7-6-8-11-6-34-13-34-13l0-8 1-1c4-3 7-8 8-14l0 0 1 0c3 0 7-3 8-6 1-1 1-3 1-4 0-1 0-3-1-4 0-1 0-2-1-2l-2-2 0-2c2-8 0-16-5-23-6-6-13-10-22-9 0 0-1 0-1 0 0 0-1 0-1 0-8-1-16 3-21 9-6 7-8 15-6 23l1 2-3 2c-1 0-1 1-1 2-1 1-1 3-1 4 0 1 0 3 1 4 2 3 5 6 8 6l1 0 0 0c1 6 4 11 8 14l1 1 0 8c0 0-23 7-34 13-3 1-5 4-6 8-1 9-2 19-2 28z m133 51l-31 31-15-15c-2-2-5-3-8-2-2 0-4 2-5 5-1 3 0 5 2 7l21 21c3 3 8 3 11 0l36-36c2-2 3-5 2-7-1-3-3-5-5-6-3 0-6 0-8 2z m-110 16l-126 0c-4 0-7 4-7 8 0 4 3 7 7 7l126 0c4 0 8-3 8-7 0-4-4-8-8-8z m110 66l-31 31-15-15c-3-3-8-3-11 0-3 3-3 7 0 10l21 21c3 3 8 3 11 0l36-36c2-2 3-5 2-7-1-3-3-5-5-6-3 0-6 0-8 2z m-110 16l-126 0c-4 0-7 4-7 8 0 4 3 7 7 7l126 0c3 0 5-1 7-3 1-3 1-6 0-8-2-2-4-4-7-4z m160-370l-330 0c-23 0-41 18-41 41l0 418c0 23 18 41 41 41l330 0c23 0 41-18 41-41l0-418c0-23-18-41-41-41z m5 459c0 3-2 5-5 5l-330 0c-3 0-5-2-5-5l0-418c0-3 2-5 5-5l330 0c3 0 5 2 5 5z"/>
    </symbol>
  
    <symbol id="icon-linkedin" viewBox="0 0 512 512">
      <path d="m368 0l-224 0c-80 0-144 64-144 144l0 224c0 80 64 144 144 144l224 0c80 0 144-64 144-144l0-224c0-80-64-144-144-144z m-176 400c0 10-6 16-16 16l-64 0c-10 0-16-6-16-16l0-192c0-10 6-16 16-16l64 0c10 0 16 6 16 16z m-48-224c-27 0-48-21-48-48 0-27 21-48 48-48 27 0 48 21 48 48 0 27-21 48-48 48z m272 224c0 10-6 16-16 16l-48 0c-10 0-16-6-16-16l0-104c0-13-11-24-24-24-13 0-24 11-24 24l0 104c0 10-6 16-16 16l-48 0c-10 0-16-6-16-16l0-192c0-10 6-16 16-16l64 0c5 0 8 2 11 5 10-3 19-5 29-5 48 0 88 40 88 88z"/>
    </symbol>
  
</svg>
